<svg width="30" height="30" viewBox="0 0 30 30" fill="none" xmlns="http://www.w3.org/2000/svg">
<circle cx="15" cy="15" r="13.25" stroke="black" stroke-width="1.5"/>
<path d="M6.84326 26.3216C6.84326 21.8136 10.5496 18.1593 15.1215 18.1593C19.6935 18.1593 23.3998 21.3267 23.3998 25.8346L21.3302 26.3216C21.3302 22.9407 18.5505 20.1999 15.1215 20.1999C11.6926 20.1999 8.91283 22.9407 8.91283 26.3216H6.84326ZM15.1215 17.139C11.6912 17.139 8.91283 14.3995 8.91283 11.0172C8.91283 7.63499 11.6912 4.89551 15.1215 4.89551C18.5518 4.89551 21.3302 7.63499 21.3302 11.0172C21.3302 14.3995 18.5518 17.139 15.1215 17.139ZM15.1215 15.0984C17.4084 15.0984 19.2607 13.2721 19.2607 11.0172C19.2607 8.76241 17.4084 6.93609 15.1215 6.93609C12.8347 6.93609 10.9824 8.76241 10.9824 11.0172C10.9824 13.2721 12.8347 15.0984 15.1215 15.0984Z" fill="black"/>
</svg>
