<?xml version="1.0" encoding="UTF-8" standalone="no"?>
<svg
   xmlns:dc="http://purl.org/dc/elements/1.1/"
   xmlns:cc="http://creativecommons.org/ns#"
   xmlns:rdf="http://www.w3.org/1999/02/22-rdf-syntax-ns#"
   xmlns:svg="http://www.w3.org/2000/svg"
   xmlns="http://www.w3.org/2000/svg"
   xmlns:sodipodi="http://sodipodi.sourceforge.net/DTD/sodipodi-0.dtd"
   xmlns:inkscape="http://www.inkscape.org/namespaces/inkscape"
   inkscape:version="1.0 (4035a4f, 2020-05-01)"
   sodipodi:docname="logo_tenk_black.svg"
   id="svg905"
   preserveAspectRatio="xMidYMid meet"
   viewBox="0 0 536.41363 208.29395"
   height="219.25679"
   width="564.64594"
   version="1.0">
  <metadata
     id="metadata911">
    <rdf:RDF>
      <cc:Work
         rdf:about="">
        <dc:format>image/svg+xml</dc:format>
        <dc:type
           rdf:resource="http://purl.org/dc/dcmitype/StillImage" />
        <dc:title></dc:title>
      </cc:Work>
    </rdf:RDF>
  </metadata>
  <defs
     id="defs909" />
  <sodipodi:namedview
     scale-x="0.95"
     units="px"
     fit-margin-bottom="0"
     fit-margin-right="0"
     fit-margin-left="0"
     fit-margin-top="0"
     inkscape:current-layer="g903"
     inkscape:window-maximized="0"
     inkscape:window-y="346"
     inkscape:window-x="116"
     inkscape:cy="2334"
     inkscape:cx="4020"
     inkscape:zoom="0.067085427"
     showgrid="false"
     id="namedview907"
     inkscape:window-height="1075"
     inkscape:window-width="1393"
     inkscape:pageshadow="2"
     inkscape:pageopacity="0"
     guidetolerance="10"
     gridtolerance="10"
     objecttolerance="10"
     borderopacity="1"
     bordercolor="#666666"
     pagecolor="#ffffff" />
  <g
     id="g903"
     stroke="none"
     fill="#000000"
     transform="matrix(0.1,0,0,-0.1,-965,4001)">
    <path
       style="stroke-width:0.0889442"
       id="path833"
       d="m 13732.539,38985.896 c 0,-626.878 0.356,-1024.37 0.801,-1024.726 1.067,-0.623 271.28,-0.623 272.347,0 0.445,0.356 0.801,74.357 0.801,188.918 v 188.294 l 31.219,30.597 c 17.166,16.9 42.782,41.893 56.924,55.59 14.142,13.698 48.831,47.408 77.204,74.98 28.373,27.484 51.943,49.987 52.299,49.987 0.445,0 4.18,-3.469 8.272,-7.649 4.18,-4.181 22.414,-22.058 40.469,-39.758 18.145,-17.7 53.723,-52.566 79.161,-77.56 71.956,-70.621 143.556,-140.798 286.133,-280.174 28.018,-27.306 64.218,-62.794 80.317,-78.715 16.188,-15.921 36.734,-36.112 45.806,-44.917 9.072,-8.806 27.929,-27.395 41.982,-41.27 l 25.527,-25.35 6.048,5.693 c 3.291,3.113 35.222,34.332 70.978,69.287 35.666,35.044 73.912,72.49 84.941,83.252 11.029,10.762 20.102,20.191 20.28,20.902 0.09,0.801 -75.336,77.204 -180.557,182.78 -263.987,264.876 -416.526,418.483 -416.793,419.728 -0.09,0.534 46.073,47.052 102.731,103.264 56.657,56.213 185.271,184.115 285.778,284.177 100.506,100.062 188.65,187.495 195.766,194.343 7.204,6.849 13.075,13.075 13.163,13.876 0.09,1.334 -11.295,12.897 -33.709,34.154 -5.604,5.337 -21.436,20.546 -35.133,33.799 -13.698,13.253 -32.287,31.219 -41.359,39.847 -9.073,8.717 -28.285,27.039 -42.694,40.914 -14.409,13.787 -27.572,26.417 -29.262,28.018 l -3.113,2.935 -410.745,-410.744 c -225.829,-225.83 -410.922,-410.478 -411.189,-410.211 -0.267,0.267 -0.444,297.34 -0.444,660.144 V 40010 h -136.975 -136.974 z" />
    <path
       style="stroke-width:0.0889442"
       id="path835"
       d="m 9908.5608,40006.709 c -0.3558,-0.267 -0.6226,-109.49 -0.6226,-242.729 0,-219.959 -0.089,-242.106 -1.4231,-242.64 -0.8005,-0.266 -58.7921,-0.533 -128.9691,-0.533 H 9650 v -143.2 -143.201 h 128.4354 c 77.0257,0 128.7023,-0.355 128.9691,-0.8 0.3558,-0.445 0.5337,-147.025 0.5337,-325.803 0,-218.002 0.2668,-328.115 0.8895,-334.697 2.1346,-22.147 7.5602,-57.28 12.0074,-77.381 0.6226,-2.935 1.7789,-8.361 2.5794,-12.008 1.9568,-8.894 8.3608,-35.755 9.8728,-41.359 0.7116,-2.401 1.8678,-7.026 2.6683,-10.228 0.8895,-3.202 2.0458,-7.383 2.6684,-9.339 0.6226,-1.957 2.4015,-8.183 4.0025,-13.787 1.512,-5.603 3.7356,-13.253 4.9808,-16.899 11.8296,-36.645 19.5678,-58.703 23.926,-68.932 0.7116,-1.423 4.0915,-9.695 7.6492,-18.234 9.6949,-23.303 24.2815,-53.9 35.3995,-74.268 2.935,-5.337 5.782,-10.584 6.226,-11.563 0.445,-0.978 3.113,-5.781 5.871,-10.673 2.846,-4.892 6.137,-10.673 7.382,-12.897 7.56,-13.608 30.597,-49.631 45.006,-70.266 11.474,-16.455 38.246,-52.032 51.676,-68.576 6.227,-7.649 32.287,-37.801 40.025,-46.162 13.52,-14.765 52.122,-53.011 64.93,-64.307 7.827,-6.937 15.743,-14.142 17.7,-15.921 3.913,-3.824 6.67,-4.269 8.449,-1.334 0.712,1.068 2.758,3.736 4.536,5.96 1.779,2.223 7.65,9.606 13.075,16.454 13.075,16.544 28.729,36.201 33.532,42.249 2.224,2.668 6.582,8.272 9.873,12.452 3.291,4.18 7.827,9.962 10.229,12.897 4.98,6.137 18.856,23.748 34.243,43.138 5.87,7.471 12.363,15.654 14.409,18.144 2.046,2.491 10.229,12.808 18.234,22.859 8.005,10.051 18.144,22.859 22.502,28.373 4.448,5.515 9.518,12.097 11.474,14.498 l 3.469,4.358 -9.695,8.895 c -31.041,28.462 -60.749,61.193 -92.413,101.663 -13.786,17.611 -47.407,67.598 -52.388,77.826 -0.356,0.712 -1.067,2.135 -1.69,3.113 -11.118,18.412 -30.775,57.636 -38.424,76.759 -1.779,4.269 -3.558,8.45 -4.002,9.25 -0.534,0.89 -0.89,2.046 -0.89,2.58 0,0.533 -0.622,2.312 -1.334,3.913 -1.601,3.291 -7.471,19.835 -10.851,30.241 -3.825,12.186 -7.471,23.926 -8.183,26.684 -0.445,1.512 -1.69,5.87 -2.757,9.783 -4.003,14.409 -6.315,23.304 -7.649,29.352 -7.383,32.198 -8.45,37.268 -10.585,51.588 -1.156,7.827 -1.334,46.695 -1.156,330.427 l 0.267,321.534 132.527,0.444 132.526,0.445 0.445,142.133 c 0.267,78.093 0.356,142.489 0.178,142.933 -0.267,0.623 -44.828,0.89 -131.193,0.89 -72.044,0 -131.815,0.267 -132.882,0.533 l -2.046,0.534 -0.178,242.551 -0.267,242.462 -142.844,0.267 c -78.5378,0.09 -143.1113,-0.09 -143.3782,-0.445 z" />
    <path
       style="stroke-width:0.0889442"
       id="path837"
       d="m 10949.475,39990.788 c -23.037,-3.38 -36.556,-7.471 -56.035,-16.721 -37.801,-17.967 -66.174,-47.941 -84.764,-89.478 -4.714,-10.496 -10.762,-32.643 -11.74,-42.694 -2.491,-26.149 -2.491,-24.726 -0.267,-46.695 0.978,-10.407 4.536,-25.527 8.805,-37.802 3.202,-9.161 12.808,-28.284 18.412,-36.911 12.185,-18.501 28.818,-35.311 47.14,-47.941 40.737,-27.929 90.012,-37.09 139.82,-25.972 14.943,3.38 34.6,11.385 47.852,19.39 3.025,1.868 5.782,3.38 6.049,3.38 0.178,0 4.269,2.846 9.072,6.404 15.032,11.118 35.578,33.087 44.383,47.407 17.878,29.085 26.95,60.66 26.95,93.836 0,67.153 -37.623,127.19 -98.728,157.431 -28.462,14.142 -67.509,20.724 -96.949,16.366 z" />
    <path
       style="stroke-width:0.0889442"
       id="path839"
       d="m 11484.03,39991.766 c -0.712,-0.177 -4.892,-0.711 -9.339,-1.334 -31.931,-4.091 -58.704,-14.853 -84.497,-34.065 -9.073,-6.76 -28.018,-25.705 -34.333,-34.422 -8.361,-11.385 -21.258,-34.154 -21.258,-37.534 0,-0.712 -0.355,-1.601 -0.889,-2.135 -1.512,-1.512 -6.938,-19.39 -9.161,-30.597 -7.294,-35.488 -3.558,-70.977 10.762,-104.509 17.166,-40.025 50.431,-73.29 90.901,-90.99 12.897,-5.604 30.241,-10.407 46.874,-12.986 16.009,-2.49 45.45,-1.067 61.816,3.024 33.621,8.361 59.681,22.503 82.362,44.828 11.919,11.563 24.638,27.306 28.018,34.333 0.355,0.711 1.512,2.757 2.49,4.447 5.781,9.517 12.185,24.104 15.032,34.243 6.67,23.304 7.56,29.886 7.471,53.367 0,17.077 -0.356,22.058 -1.957,30.241 -2.135,10.851 -5.248,22.414 -8.183,29.796 -1.067,2.668 -2.223,5.87 -2.579,7.116 -1.245,3.824 -10.585,21.257 -14.943,27.928 -17.166,25.883 -40.469,46.785 -66.53,59.949 -20.368,10.139 -37.446,15.298 -60.749,18.411 -8.628,1.156 -27.306,1.69 -31.308,0.889 z" />
    <path
       style="stroke-width:0.0889442"
       id="path841"
       d="m 11202.076,39518.939 c -4.625,-0.356 -11.206,-0.712 -14.675,-0.8 -3.38,-0.178 -8.984,-0.623 -12.452,-0.979 -3.38,-0.445 -10.229,-1.156 -15.121,-1.601 -20.991,-2.046 -55.59,-7.649 -74.268,-12.096 -3.202,-0.712 -8.361,-1.957 -11.563,-2.669 -3.202,-0.711 -10.14,-2.579 -15.565,-4.091 -5.337,-1.512 -10.941,-3.024 -12.453,-3.38 -2.846,-0.711 -3.913,-1.067 -18.233,-5.781 -11.563,-3.825 -15.032,-5.07 -17.344,-5.96 -0.979,-0.444 -6.582,-2.579 -12.452,-4.803 -5.871,-2.223 -11.83,-4.625 -13.342,-5.336 -1.423,-0.712 -4.625,-2.135 -7.116,-3.202 -8.271,-3.647 -34.688,-16.722 -41.803,-20.724 -3.914,-2.224 -7.739,-4.358 -8.45,-4.625 -4.003,-1.957 -31.397,-19.034 -41.359,-25.705 -33.799,-22.948 -58.525,-43.494 -88.944,-73.913 -35.756,-35.755 -64.663,-72.667 -92.058,-117.762 -3.735,-6.137 -10.94,-18.411 -13.252,-22.503 -1.512,-2.757 -4.003,-7.382 -5.604,-10.139 -3.291,-6.049 -16.277,-32.109 -19.745,-39.847 -1.335,-2.936 -2.758,-5.96 -3.202,-6.849 -1.868,-3.38 -13.876,-32.376 -18.412,-44.294 -5.603,-14.765 -16.366,-47.052 -20.279,-60.927 -0.801,-2.935 -1.779,-6.315 -2.224,-7.56 -0.622,-2.046 -1.779,-6.227 -5.07,-19.123 -0.711,-2.936 -1.867,-7.116 -2.49,-9.34 -0.623,-2.223 -1.779,-7.382 -2.668,-11.562 -0.89,-4.181 -1.868,-8.717 -2.313,-10.229 -0.8,-2.668 -4.18,-18.767 -6.76,-31.575 -2.401,-12.274 -6.137,-34.244 -7.382,-43.583 -0.534,-3.646 -1.067,-7.204 -1.334,-8.005 -0.178,-0.711 -0.801,-4.714 -1.245,-8.894 -0.534,-4.181 -1.69,-13.964 -2.669,-21.792 -2.045,-16.721 -4.18,-38.601 -5.425,-56.034 -3.024,-41.093 -3.024,-120.342 0,-160.989 1.601,-21.881 5.158,-56.925 7.115,-70.711 3.113,-22.058 6.048,-41.27 7.116,-46.251 0.444,-2.224 1.512,-7.827 2.312,-12.452 2.313,-13.253 5.426,-28.996 8.005,-40.025 4.181,-18.056 5.693,-24.104 7.916,-32.465 0.712,-2.401 1.868,-7.026 2.758,-10.228 0.8,-3.202 1.778,-6.76 2.134,-8.005 0.445,-1.246 1.423,-4.625 2.224,-7.561 0.889,-2.935 2.579,-8.538 3.735,-12.452 1.246,-3.913 2.58,-8.272 2.936,-9.784 1.867,-7.026 17.877,-51.231 21.346,-58.703 0.445,-0.978 1.601,-3.735 2.669,-6.226 2.757,-6.404 3.113,-7.382 6.137,-14.053 1.512,-3.291 2.757,-6.137 2.757,-6.404 0,-0.267 4.536,-9.606 10.051,-20.724 11.74,-23.481 14.853,-29.263 24.459,-45.54 2.758,-4.625 5.515,-9.25 6.138,-10.228 0.622,-0.978 1.423,-2.402 1.778,-3.113 1.512,-2.757 7.205,-11.563 16.188,-24.905 53.989,-80.227 121.943,-142.844 207.774,-191.674 7.916,-4.536 38.068,-19.746 44.027,-22.236 3.202,-1.335 7.383,-3.113 9.339,-4.003 6.138,-2.668 18.323,-7.56 25.794,-10.317 11.207,-4.092 16.455,-5.871 18.679,-6.493 2.401,-0.623 12.719,-3.825 20.546,-6.315 4.002,-1.335 19.301,-5.337 26.149,-6.849 3.202,-0.712 7.205,-1.601 8.895,-2.046 25.527,-5.781 57.013,-10.762 87.61,-13.697 16.632,-1.601 44.116,-3.38 51.143,-3.202 8.005,0.09 40.202,0.09 44.027,0 16.544,-0.623 76.136,5.159 103.175,9.962 2.935,0.444 7.383,1.245 9.784,1.601 2.491,0.355 8.45,1.512 13.342,2.579 4.892,1.067 10.139,2.135 11.563,2.401 4.536,0.89 34.332,8.272 40.914,10.229 3.469,0.978 7.649,2.135 9.339,2.49 1.69,0.445 6.315,1.779 10.229,3.114 3.913,1.245 9.161,2.935 11.562,3.735 2.491,0.712 5.248,1.69 6.226,2.135 0.979,0.445 4.181,1.601 7.116,2.579 3.024,0.979 6.404,2.135 7.56,2.58 1.246,0.444 3.825,1.512 5.782,2.223 24.637,9.606 29.796,11.741 45.806,18.945 7.115,3.202 37.801,18.59 44.739,22.414 2.757,1.601 7.382,4.092 10.228,5.693 7.294,4.002 29.441,17.522 32.732,20.012 1.512,1.156 3.024,2.046 3.291,2.046 0.267,0 3.024,1.69 6.137,3.824 3.113,2.135 8.183,5.604 11.385,7.739 12.986,8.805 39.669,29.173 52.922,40.38 23.837,20.191 60.749,56.747 78.804,77.915 38.068,44.65 69.11,90.901 96.238,143.556 l 3.736,7.205 0.533,76.047 c 0.356,41.804 0.712,76.492 0.801,76.937 0.8,3.202 3.113,3.113 -117.14,2.935 l -117.228,-0.267 -4.981,-9.784 c -6.048,-12.007 -8.539,-16.632 -16.455,-30.063 -3.38,-5.781 -6.493,-11.118 -7.026,-12.007 -0.445,-0.801 -4.27,-6.493 -8.361,-12.63 -20.191,-30.063 -40.292,-54.345 -66.353,-80.05 -7.649,-7.56 -14.409,-14.142 -14.942,-14.676 -0.623,-0.445 -4.27,-3.736 -8.183,-7.204 -11.296,-9.962 -32.465,-26.684 -42.071,-33.266 -19.478,-13.341 -24.548,-16.543 -36.2,-23.303 -8.805,-5.07 -27.395,-14.498 -40.47,-20.546 -11.651,-5.337 -41.448,-16.099 -51.143,-18.411 -1.423,-0.356 -5.87,-1.601 -9.783,-2.669 -3.914,-1.067 -8.717,-2.223 -10.674,-2.668 -20.991,-4.269 -27.75,-5.426 -46.962,-8.005 -16.455,-2.135 -46.696,-3.024 -67.42,-1.957 -22.058,1.156 -28.284,1.868 -48.386,5.159 -13.43,2.223 -21.702,3.913 -30.685,6.315 -6.671,1.69 -30.508,9.339 -31.576,10.051 -0.444,0.355 -2.846,1.334 -5.336,2.223 -6.048,2.135 -10.94,4.358 -20.902,9.25 -53.811,26.684 -108.69,76.315 -142.667,129.058 -3.291,5.159 -6.848,10.407 -7.738,11.741 -0.889,1.334 -1.69,2.668 -1.69,2.846 0,0.267 -1.69,3.202 -3.646,6.493 -8.094,13.164 -19.39,35.489 -27.929,54.968 -2.579,6.048 -3.113,7.293 -4.892,12.007 -0.978,2.669 -2.134,5.693 -2.579,6.671 -11.652,27.306 -26.595,84.052 -32.999,124.967 -0.533,3.646 -1.423,8.36 -1.867,10.406 -0.445,2.046 -1.157,7.294 -1.69,11.563 -0.445,4.269 -0.979,8.627 -1.157,9.606 -0.444,1.868 -0.533,2.579 -2.757,24.46 -3.024,28.729 -4.981,68.398 -3.735,74.98 l 0.622,3.29 525.838,0.178 525.838,0.267 v 20.457 c 0,39.936 -3.024,79.161 -9.872,127.191 -1.157,8.36 -2.491,17.966 -3.024,21.346 -0.445,3.469 -1.246,8.272 -1.69,10.673 -0.445,2.491 -1.512,7.828 -2.224,12.008 -4.091,22.503 -10.051,50.076 -15.298,69.821 -1.779,6.849 -3.558,13.875 -3.914,15.565 -3.113,13.52 -17.077,57.903 -23.748,75.158 -0.712,1.957 -1.868,5.07 -2.579,6.938 -2.046,5.425 -4.092,10.762 -4.892,12.63 -0.445,0.978 -1.601,4.002 -2.58,6.671 -1.067,2.668 -2.49,6.315 -3.202,8.005 -0.8,1.69 -1.69,3.913 -2.134,4.892 -0.445,0.978 -1.957,4.447 -3.469,7.827 -1.512,3.291 -2.757,6.137 -2.757,6.315 0,0.267 -1.513,3.735 -3.469,7.827 -26.595,57.102 -55.146,103.887 -90.457,148.448 -23.392,29.529 -56.657,63.328 -84.852,86.187 -2.669,2.223 -5.07,4.18 -5.337,4.536 -1.067,1.156 -26.239,19.746 -35.578,26.238 -10.406,7.205 -33.087,21.703 -39.58,25.261 -1.957,1.156 -6.137,3.379 -9.339,5.158 -3.202,1.69 -6.137,3.38 -6.671,3.736 -1.156,0.978 -29.974,15.298 -35.577,17.789 -2.402,1.067 -6.404,2.846 -8.895,4.002 -6.76,3.024 -18.5,7.739 -26.683,10.763 -11.385,4.18 -16.455,5.87 -18.678,6.493 -1.513,0.355 -3.558,1.156 -4.626,1.689 -1.067,0.623 -2.935,1.068 -4.18,1.068 -1.245,0 -2.401,0.356 -2.668,0.8 -0.356,0.445 -2.491,1.246 -4.803,1.779 -2.313,0.534 -6.137,1.601 -8.628,2.224 -15.209,4.358 -31.931,8.449 -47.585,11.563 -13.964,2.757 -16.633,3.202 -23.125,4.18 -3.647,0.534 -10.674,1.512 -15.566,2.224 -4.892,0.711 -12.986,1.689 -17.966,2.134 -4.981,0.534 -11.83,1.245 -15.121,1.69 -3.291,0.445 -9.25,0.89 -13.075,0.979 -3.913,0 -7.471,0.355 -8.005,0.622 -1.245,0.801 -81.117,0.979 -91.257,0.178 z m 83.43,-277.061 c 49.453,-5.248 86.632,-15.565 123.899,-34.333 28.818,-14.409 50.877,-30.596 77.649,-56.746 37.801,-37.001 65.907,-77.204 90.189,-128.969 8.094,-17.344 14.676,-33.977 14.231,-36.023 -0.267,-1.245 -38.868,-1.334 -347.594,-1.334 -321.266,0 -347.327,0.09 -347.594,1.423 -0.178,0.801 0.09,2.313 0.623,3.38 0.534,0.979 1.779,4.092 2.757,6.76 0.979,2.668 2.135,5.692 2.58,6.671 0.444,0.978 1.69,4.002 2.757,6.671 7.471,18.5 20.991,44.916 32.909,64.484 36.2,59.326 87.521,108.423 139.643,133.683 14.231,6.849 19.123,9.073 19.834,9.073 0.356,0 2.313,0.8 4.447,1.69 3.825,1.778 14.943,5.87 19.746,7.293 1.512,0.356 4.892,1.423 7.56,2.135 20.546,6.137 43.761,10.762 64.93,12.986 4.625,0.533 11.295,1.245 14.675,1.601 11.563,1.245 63.684,0.978 76.759,-0.445 z" />
    <path
       style="stroke-width:0.0889442"
       id="path843"
       d="m 12759.045,39518.85 c -32.554,-1.779 -81.028,-7.56 -102.731,-12.274 -14.231,-3.113 -29.529,-6.582 -32.909,-7.56 -2.224,-0.623 -5.603,-1.513 -7.56,-2.046 -6.493,-1.69 -42.96,-13.698 -45.095,-14.765 -1.245,-0.623 -3.291,-1.423 -4.536,-1.779 -1.334,-0.267 -4.536,-1.512 -7.116,-2.668 -2.49,-1.245 -7.204,-3.291 -10.406,-4.714 -8.806,-3.825 -34.955,-17.166 -44.917,-22.948 -27.839,-16.099 -60.66,-40.025 -87.966,-63.951 -26.772,-23.481 -69.732,-66.441 -91.079,-91.168 -4.091,-4.714 -7.827,-8.716 -8.271,-8.894 -0.534,-0.178 -52.3,50.965 -115.005,113.671 -62.617,62.616 -114.116,113.937 -114.294,113.937 -0.8,0 -9.784,-8.538 -37.89,-36.378 -16.721,-16.455 -45.095,-44.294 -63.15,-61.816 -48.475,-47.141 -71.6,-70.177 -71.6,-71.244 0,-0.534 52.21,-53.189 116.072,-116.962 l 116.072,-115.983 v -574.847 c 0,-349.017 0.356,-574.935 0.801,-575.291 1.245,-0.711 271.635,-0.534 272.436,0.267 0.355,0.356 0.8,183.759 0.978,407.542 0.267,290.581 0.712,408.966 1.334,414.036 0.623,3.913 1.423,12.363 1.957,18.678 0.445,6.404 1.067,12.986 1.334,14.676 0.178,1.69 0.623,5.158 0.89,7.56 1.601,13.697 4.625,33.71 6.759,44.472 0.445,2.49 1.601,8.628 2.58,13.786 0.889,5.159 2.579,13.164 3.646,17.789 0.979,4.625 2.135,9.873 2.58,11.563 4.625,21.702 14.765,54.612 24.726,80.494 8.717,22.859 24.282,54.79 36.912,76.048 10.051,16.899 21.258,32.909 35.667,50.698 7.382,9.161 31.931,34.066 43.049,43.672 12.274,10.673 37.801,29.529 44.65,33.087 0.711,0.356 2.579,1.423 4.002,2.401 1.512,0.979 3.291,2.046 4.003,2.402 0.711,0.267 2.757,1.423 4.447,2.49 8.894,5.515 40.647,20.013 43.849,20.013 0.445,0 2.046,0.533 3.558,1.156 4.447,1.868 8.806,3.38 12.186,4.18 1.69,0.445 6.759,1.779 11.118,2.936 12.096,3.29 19.123,4.714 34.688,7.204 25.794,4.091 38.068,4.981 68.487,4.892 34.421,0 52.922,-1.69 82.273,-7.56 10.496,-2.135 14.053,-2.935 25.794,-6.315 10.584,-3.024 32.198,-10.585 36.2,-12.63 0.89,-0.445 3.025,-1.424 4.714,-2.135 4.359,-1.868 19.123,-9.25 24.905,-12.452 23.748,-13.075 58.08,-39.136 78.715,-59.771 9.517,-9.428 24.638,-26.861 32.999,-37.979 6.582,-8.628 19.034,-26.327 19.034,-26.95 0,-0.178 2.846,-4.714 6.226,-10.14 3.469,-5.336 6.226,-9.961 6.226,-10.228 0,-0.267 1.245,-2.58 2.757,-5.159 4.625,-7.827 23.037,-44.917 23.037,-46.429 0,-0.267 0.978,-2.579 2.134,-5.159 2.491,-5.425 9.429,-23.125 11.652,-29.618 0.801,-2.402 1.868,-5.248 2.224,-6.226 0.978,-2.491 3.024,-8.806 4.892,-15.121 1.601,-5.336 2.935,-9.695 4.714,-15.565 1.69,-5.337 7.56,-29.44 10.317,-42.248 1.512,-6.938 6.315,-32.732 7.116,-38.246 3.824,-25.439 6.137,-45.273 8.005,-67.153 0.711,-8.094 1.334,-15.477 1.423,-16.455 0.09,-0.978 0.356,-183.403 0.534,-405.319 0.355,-381.837 0.444,-403.629 1.956,-403.629 197.723,-0.178 270.924,0.09 271.636,1.068 1.245,1.956 0.356,798.897 -0.889,818.109 -1.424,22.058 -3.558,49.275 -4.626,59.592 -3.29,30.419 -7.471,61.55 -11.029,80.495 -0.711,3.913 -1.779,9.517 -2.312,12.452 -3.024,16.632 -6.582,33.443 -9.339,44.917 -0.712,2.668 -1.868,7.738 -2.669,11.118 -1.601,6.848 -2.134,8.983 -7.56,28.907 -5.337,19.923 -15.832,53.099 -21.169,67.152 -0.978,2.491 -2.579,6.849 -3.646,9.784 -1.157,2.935 -2.313,6.137 -2.758,7.116 -0.355,0.978 -2.045,4.981 -3.646,8.894 -1.512,3.914 -4.003,9.606 -5.426,12.719 -1.334,3.113 -2.49,5.871 -2.49,6.226 0,0.267 -0.801,2.135 -1.69,4.092 -0.979,2.046 -3.558,7.649 -5.871,12.541 -7.649,16.455 -18.144,36.823 -24.815,48.475 -1.245,2.223 -2.668,4.803 -3.202,5.781 -4.358,8.983 -23.392,38.513 -39.669,61.816 -28.907,41.359 -75.069,89.834 -119.096,125.145 -14.854,11.829 -43.672,32.553 -53.1,38.068 -0.801,0.533 -6.849,4.18 -13.342,8.183 -6.493,3.913 -13.43,8.094 -15.387,9.161 -9.428,5.337 -27.039,14.854 -29.796,16.188 -1.69,0.8 -5.871,2.846 -9.34,4.536 -5.247,2.579 -11.562,5.337 -31.13,13.519 -1.423,0.623 -5.693,2.224 -9.339,3.469 -3.647,1.334 -8.094,3.024 -9.784,3.647 -3.469,1.423 -24.104,8.005 -35.578,11.385 -4.18,1.245 -12.986,3.469 -19.567,5.07 -6.582,1.512 -14.054,3.291 -16.544,4.002 -2.491,0.712 -5.426,1.334 -6.493,1.334 -1.067,0 -4.18,0.534 -7.027,1.246 -14.231,3.646 -68.842,10.851 -84.141,11.118 -3.913,0.09 -7.56,0.444 -8.005,0.8 -1.334,0.801 -88.232,0.801 -103.264,0 z" />
  </g>
</svg>
